<mxfile host="app.diagrams.net" modified="2022-05-16T20:56:49.821Z" agent="5.0 (X11; Linux x86_64) AppleWebKit/537.36 (KHTML, like Gecko) Chrome/100.0.4896.133 Safari/537.36" etag="MadTF21lOWnei3TECKhM" version="18.0.6" type="github">
  <diagram id="R2lEEEUBdFMjLlhIrx00" name="Page-1">
    <mxGraphModel dx="1550" dy="769" grid="1" gridSize="10" guides="1" tooltips="1" connect="1" arrows="1" fold="1" page="1" pageScale="1" pageWidth="850" pageHeight="1100" math="0" shadow="0" extFonts="Permanent Marker^https://fonts.googleapis.com/css?family=Permanent+Marker">
      <root>
        <mxCell id="0" />
        <mxCell id="1" parent="0" />
        <mxCell id="bWF3c4gcchEXqT_2D39m-2" value="CampeÃ³n" style="rounded=1;whiteSpace=wrap;html=1;" vertex="1" parent="1">
          <mxGeometry x="140" y="100" width="120" height="60" as="geometry" />
        </mxCell>
        <mxCell id="bWF3c4gcchEXqT_2D39m-4" value="Gano" style="rhombus;whiteSpace=wrap;html=1;" vertex="1" parent="1">
          <mxGeometry x="330" y="90" width="80" height="80" as="geometry" />
        </mxCell>
        <mxCell id="bWF3c4gcchEXqT_2D39m-5" value="" style="endArrow=none;html=1;rounded=0;entryX=0;entryY=0.5;entryDx=0;entryDy=0;" edge="1" parent="1" target="bWF3c4gcchEXqT_2D39m-4">
          <mxGeometry width="50" height="50" relative="1" as="geometry">
            <mxPoint x="270" y="130" as="sourcePoint" />
            <mxPoint x="360" y="130" as="targetPoint" />
            <Array as="points">
              <mxPoint x="260" y="130" />
            </Array>
          </mxGeometry>
        </mxCell>
        <mxCell id="bWF3c4gcchEXqT_2D39m-9" value="Match Mundial" style="rounded=1;whiteSpace=wrap;html=1;" vertex="1" parent="1">
          <mxGeometry x="508" y="100" width="120" height="60" as="geometry" />
        </mxCell>
        <mxCell id="bWF3c4gcchEXqT_2D39m-10" value="" style="endArrow=none;html=1;rounded=0;exitX=1;exitY=0.5;exitDx=0;exitDy=0;" edge="1" parent="1" source="bWF3c4gcchEXqT_2D39m-4">
          <mxGeometry width="50" height="50" relative="1" as="geometry">
            <mxPoint x="420" y="129.5" as="sourcePoint" />
            <mxPoint x="510" y="129.5" as="targetPoint" />
          </mxGeometry>
        </mxCell>
        <mxCell id="bWF3c4gcchEXqT_2D39m-16" value="Perdio" style="rhombus;whiteSpace=wrap;html=1;" vertex="1" parent="1">
          <mxGeometry x="528" y="230" width="80" height="80" as="geometry" />
        </mxCell>
        <mxCell id="bWF3c4gcchEXqT_2D39m-20" value="" style="endArrow=none;html=1;rounded=0;entryX=0.5;entryY=1;entryDx=0;entryDy=0;" edge="1" parent="1" target="bWF3c4gcchEXqT_2D39m-16">
          <mxGeometry width="50" height="50" relative="1" as="geometry">
            <mxPoint x="568" y="390" as="sourcePoint" />
            <mxPoint x="578" y="370" as="targetPoint" />
          </mxGeometry>
        </mxCell>
        <mxCell id="bWF3c4gcchEXqT_2D39m-21" value="Match Mundial" style="rounded=1;whiteSpace=wrap;html=1;" vertex="1" parent="1">
          <mxGeometry x="508" y="390" width="120" height="60" as="geometry" />
        </mxCell>
        <mxCell id="bWF3c4gcchEXqT_2D39m-23" value="" style="endArrow=none;html=1;rounded=0;entryX=0.5;entryY=1;entryDx=0;entryDy=0;" edge="1" parent="1" target="bWF3c4gcchEXqT_2D39m-2">
          <mxGeometry width="50" height="50" relative="1" as="geometry">
            <mxPoint x="200" y="260" as="sourcePoint" />
            <mxPoint x="220" y="210" as="targetPoint" />
          </mxGeometry>
        </mxCell>
        <mxCell id="bWF3c4gcchEXqT_2D39m-24" value="Jugaba" style="rhombus;whiteSpace=wrap;html=1;" vertex="1" parent="1">
          <mxGeometry x="160" y="250" width="80" height="80" as="geometry" />
        </mxCell>
        <mxCell id="bWF3c4gcchEXqT_2D39m-25" value="" style="endArrow=none;html=1;rounded=0;entryX=0.5;entryY=1;entryDx=0;entryDy=0;" edge="1" parent="1" target="bWF3c4gcchEXqT_2D39m-24">
          <mxGeometry width="50" height="50" relative="1" as="geometry">
            <mxPoint x="200" y="430" as="sourcePoint" />
            <mxPoint x="225" y="370" as="targetPoint" />
            <Array as="points" />
          </mxGeometry>
        </mxCell>
        <mxCell id="bWF3c4gcchEXqT_2D39m-27" style="edgeStyle=orthogonalEdgeStyle;rounded=0;orthogonalLoop=1;jettySize=auto;html=1;" edge="1" parent="1" source="bWF3c4gcchEXqT_2D39m-26" target="bWF3c4gcchEXqT_2D39m-28">
          <mxGeometry relative="1" as="geometry">
            <mxPoint x="310" y="460" as="targetPoint" />
          </mxGeometry>
        </mxCell>
        <mxCell id="bWF3c4gcchEXqT_2D39m-26" value="Apertura" style="rounded=1;whiteSpace=wrap;html=1;" vertex="1" parent="1">
          <mxGeometry x="140" y="430" width="120" height="60" as="geometry" />
        </mxCell>
        <mxCell id="bWF3c4gcchEXqT_2D39m-28" value="Defensa" style="rounded=1;whiteSpace=wrap;html=1;" vertex="1" parent="1">
          <mxGeometry x="305" y="430" width="120" height="60" as="geometry" />
        </mxCell>
        <mxCell id="bWF3c4gcchEXqT_2D39m-30" value="" style="endArrow=none;html=1;rounded=0;entryX=0.5;entryY=1;entryDx=0;entryDy=0;exitX=0.5;exitY=0;exitDx=0;exitDy=0;" edge="1" parent="1" source="bWF3c4gcchEXqT_2D39m-16" target="bWF3c4gcchEXqT_2D39m-9">
          <mxGeometry width="50" height="50" relative="1" as="geometry">
            <mxPoint x="570" y="220" as="sourcePoint" />
            <mxPoint x="578" y="190" as="targetPoint" />
          </mxGeometry>
        </mxCell>
      </root>
    </mxGraphModel>
  </diagram>
</mxfile>
